<svg width="547" height="593" viewBox="0 0 547 593" fill="none" xmlns="http://www.w3.org/2000/svg">
<g clip-path="url(#clip0)">
<path d="M459.54 153.901C508.677 194.457 526.806 273.514 508.15 343.431C489.364 413.349 433.909 474.141 358.101 514.671C282.294 555.102 186.271 575.443 122.144 543.675C58.0182 511.907 26.114 428.268 9.94885 346.202C-6.07908 264.13 -6.33899 183.744 36.3588 144.51C79.0567 105.409 164.611 107.333 247.487 109.257C330.392 111.301 410.532 113.351 459.54 153.901Z" fill="#78E5E1"/>
<path d="M419.383 567.593H403.442V577.341H419.383V567.593Z" fill="#E49D75"/>
<path d="M498.016 549.578L486.379 558.188L494.708 567.633L506.345 559.023L498.016 549.578Z" fill="#E49D75"/>
<path d="M429.989 169.533H429.26C425.978 169.533 423.318 171.97 423.318 174.976V177.773C423.318 180.779 425.978 183.215 429.26 183.215H429.989C433.271 183.215 435.931 180.779 435.931 177.773V174.976C435.931 171.97 433.271 169.533 429.989 169.533Z" fill="#E49D75"/>
<path d="M434.92 375.226C437.086 379.775 453.692 471.072 456.132 479.709C458.572 488.345 497.609 544.647 500.266 548.013C501.082 552.88 489.025 561.113 483.307 561.113C477.589 556.973 410.806 468.341 409.203 464.407C407.6 460.472 402.222 366.312 434.92 375.226Z" fill="#5FC5D1"/>
<path d="M365.198 360.102C364.44 363.871 375.725 450.037 377.125 461.609C378.526 473.182 400.149 566.41 402.063 568.737C403.976 571.065 418.531 570.562 421.043 569.399C423.556 568.235 416.134 472.19 416.134 465.226C416.134 458.263 435.627 394.039 433.122 375.437C430.617 356.835 365.198 360.102 365.198 360.102Z" fill="#6BD5E1"/>
<path d="M420.531 255.652H405.29V279.948H420.531V255.652Z" fill="#E49D75"/>
<path d="M326.421 91.1577H84.7532C75.8135 91.1577 68.5664 97.7955 68.5664 105.984V327.335C68.5664 335.524 75.8135 342.161 84.7532 342.161H326.421C335.361 342.161 342.608 335.524 342.608 327.335V105.984C342.608 97.7955 335.361 91.1577 326.421 91.1577Z" fill="#FFC48E"/>
<path d="M222.716 205.527C226.476 202.367 229.107 198.24 230.263 193.687C231.419 189.134 231.047 184.368 229.196 180.012C227.344 175.656 224.1 171.914 219.887 169.276C215.675 166.637 210.69 165.226 205.587 165.226C200.484 165.226 195.5 166.637 191.287 169.276C187.074 171.914 183.83 175.656 181.979 180.012C180.127 184.368 179.755 189.134 180.912 193.687C182.068 198.24 184.698 202.367 188.458 205.527L168.943 278.01H242.21L222.716 205.527Z" fill="#A4A4A4"/>
<path d="M117.61 91.1578C117.82 69.9129 127.182 49.6036 143.658 34.6487C160.134 19.6939 182.391 11.3037 205.587 11.3037C228.783 11.3037 251.04 19.6939 267.516 34.6487C283.992 49.6036 293.354 69.9129 293.564 91.1578" stroke="#FA9E9F" stroke-width="32" stroke-linecap="round" stroke-linejoin="round"/>
<path d="M410.943 259.647C422.506 259.647 431.88 248.1 431.88 233.856C431.88 219.613 422.506 208.066 410.943 208.066C399.38 208.066 390.006 219.613 390.006 233.856C390.006 248.1 399.38 259.647 410.943 259.647Z" fill="#E49D75"/>
<path d="M408.091 274.942C382.706 274.942 360.08 339.444 364.426 360.849C365.711 367.171 426.458 379.927 435.743 378.142C439.042 374.029 452.507 274.942 408.091 274.942Z" fill="#FFD98E"/>
<path d="M401.579 310.869C412.943 303.317 394.778 266.722 390.533 266.094C382.714 264.937 363.271 278.658 363.885 284.425C364.209 287.466 390.006 318.56 401.579 310.869Z" fill="#FFE4AD"/>
<path d="M367.487 281.707C364.426 278.341 356.773 261.868 355.935 257.96C355.098 254.052 353.048 195.31 353.048 191.832C353.048 188.353 347.994 179.578 347.994 174.341C347.994 169.103 353.813 162.001 356.773 161.909C359.935 163.965 364.325 176.027 364.527 179.102C365.632 172.489 370.859 170.968 372.288 170.968C373.718 170.968 373.53 181.185 367.61 188.062C367.819 193.115 374.83 243.154 375.963 246.05C377.097 248.947 390.006 267.932 389.977 269.612C389.948 271.292 367.487 281.707 367.487 281.707Z" fill="#E49D75"/>
<path d="M523.595 188.21L267.427 156.153L266.427 162.855L522.595 194.913L523.595 188.21Z" fill="#A4A4A4"/>
<path d="M282.091 164.813L266.425 162.853L263.529 182.266L279.195 184.226L282.091 164.813Z" fill="#A4A4A4"/>
<path d="M297.18 166.704L288.753 165.65L285.857 185.063L294.284 186.118L297.18 166.704Z" fill="#A4A4A4"/>
<path d="M436.609 220.869C436.01 217.734 435.469 195.019 436.393 191.812C437.317 188.605 439.815 186.264 440.934 181.476C441.317 179.829 440.71 174.129 439.49 173.891C436.862 173.375 436.71 176.073 436.364 178.057C435.021 184.822 432.285 183.585 431.021 183.427C429.758 183.268 425.419 182.58 423.996 182.547C422.574 182.514 426.198 185.192 425.094 189.471C424.227 192.837 420.155 215.261 419.318 218.931C422.357 219.043 436.609 220.869 436.609 220.869Z" fill="#E49D75"/>
<path d="M311.56 168.497L303.134 167.443L300.238 186.856L308.665 187.911L311.56 168.497Z" fill="#A4A4A4"/>
<path d="M311.556 168.503L266.425 162.855L265.399 169.735L310.529 175.383L311.556 168.503Z" fill="#A4A4A4"/>
<path d="M530.43 174.632C526.677 174.163 522.856 174.725 519.45 176.245C516.044 177.765 513.207 180.176 511.297 183.173C509.387 186.169 508.49 189.617 508.718 193.081C508.947 196.545 510.291 199.869 512.582 202.633C514.872 205.397 518.006 207.477 521.587 208.61C525.168 209.743 529.035 209.879 532.7 209C536.364 208.12 539.662 206.266 542.177 203.67C544.691 201.075 546.309 197.855 546.827 194.417C547.17 192.132 547.019 189.807 546.381 187.575C545.743 185.343 544.63 183.249 543.107 181.411C541.584 179.573 539.681 178.029 537.506 176.865C535.331 175.702 532.926 174.943 530.43 174.632ZM540.762 193.637C540.412 195.979 539.313 198.173 537.602 199.942C535.89 201.711 533.645 202.976 531.149 203.576C528.653 204.177 526.019 204.085 523.58 203.314C521.14 202.543 519.006 201.127 517.445 199.244C515.885 197.362 514.969 195.098 514.814 192.739C514.658 190.379 515.27 188.031 516.572 185.99C517.874 183.949 519.807 182.308 522.127 181.274C524.448 180.24 527.051 179.859 529.607 180.18C533.035 180.61 536.135 182.269 538.227 184.793C540.319 187.317 541.23 190.498 540.762 193.637Z" fill="#A4A4A4"/>
<path d="M367.689 188.009C366.736 184.59 364.881 181.601 364.577 179.029V179.108C364.375 176.027 359.986 163.965 356.823 161.915C353.863 162.008 348.044 169.11 348.044 174.347C348.044 178.189 350.788 183.936 352.246 188.095H367.66L367.689 188.009Z" fill="#E49D75"/>
<path d="M392.078 217.701C392.078 226.622 398.951 232.124 409.846 235.192C409.846 247.399 411.903 247.935 411.903 255.368C411.903 271.384 408.921 263.376 408.921 291.031C408.921 307.708 416.546 316.781 430.581 316.781C447.554 316.781 457.294 300.335 457.294 291.474C457.294 280.232 445.15 260.698 444.298 244.476C443.122 222.654 435.714 204.396 417.138 204.396C401.268 204.396 392.078 209.805 392.078 217.701Z" fill="black"/>
<path d="M410.921 242.44C414.032 242.44 416.553 240.13 416.553 237.282C416.553 234.433 414.032 232.124 410.921 232.124C407.811 232.124 405.29 234.433 405.29 237.282C405.29 240.13 407.811 242.44 410.921 242.44Z" fill="#E49D75"/>
<path fill-rule="evenodd" clip-rule="evenodd" d="M506.316 557.125L515.341 568.407L496.461 592.874L478.643 592.98L478.874 584.707L486.029 581.811L492.39 567.434L506.316 557.125Z" fill="black"/>
<path d="M420.452 576.527V593H367.588V585.706L402.467 576.527H420.452Z" fill="black"/>
</g>
<defs>
<clipPath id="clip0">
<rect width="547" height="593" fill="white"/>
</clipPath>
</defs>
</svg>
