<svg width="365" height="347" viewBox="0 0 365 347" fill="none" xmlns="http://www.w3.org/2000/svg">
<path d="M238.365 0.773438H0.0712891V220.17H238.365V0.773438Z" fill="#FFFEFE"/>
<path d="M147.74 23.5498V84.7198H189.591" stroke="#31B3C2" stroke-width="5" stroke-linecap="round" stroke-linejoin="round"/>
<path d="M238.71 346.881C308.401 346.881 364.897 336.991 364.897 324.791C364.897 312.59 308.401 302.7 238.71 302.7C169.019 302.7 112.523 312.59 112.523 324.791C112.523 336.991 169.019 346.881 238.71 346.881Z" fill="#EFEFEF"/>
<path d="M284.71 314.664V322.482H311.154V319.023L294.309 314.664" fill="black"/>
<path d="M175.8 312.78V316.766L178.553 319.547H185.295L187.876 323.204H170.492L163.939 313.458L168.174 308.19" fill="black"/>
<path d="M263.03 194.946C263.03 194.946 295.567 239.769 298.402 249.46C301.237 259.15 294.309 314.664 294.309 314.664H284.71C284.71 314.664 277.468 274.672 279.514 260.614C272.268 256.56 240.817 238.151 238.279 228.662" fill="#56CAD8"/>
<path d="M263.03 194.945C260.015 201.784 231.2 257.139 231.2 257.139L175.8 312.779L167.614 307.853L205.057 253.846L212.769 189.876" fill="#74D5DE"/>
<path d="M212.963 217.492H136.021V255.318H212.963V217.492Z" fill="#FD8369"/>
<path d="M174.49 228.603C180.931 228.603 186.152 223.796 186.152 217.865C186.152 211.935 180.931 207.127 174.49 207.127C168.049 207.127 162.827 211.935 162.827 217.865C162.827 223.796 168.049 228.603 174.49 228.603Z" stroke="#FD8369" stroke-width="9" stroke-miterlimit="10"/>
<path d="M282.741 141.828C283.603 143.506 286.209 155.315 286.123 162.011C290.539 164.164 315.851 183.193 318.957 184.743C323.476 187.004 324.989 187.005 325.368 187.266C324.566 188.587 320.723 194.502 320.723 194.502C320.723 194.502 317.053 191.491 315.278 190.856C313.503 190.221 287.864 179.083 274.271 169.039C271.936 167.314 269.054 161.225 268.881 159.48C268.709 157.734 269.338 143.692 269.338 143.692L282.741 141.828Z" fill="#DE8E68"/>
<path d="M207.845 135.803C206.527 137.262 189.052 153.629 184.412 162.776C179.772 171.923 178.225 182.923 176.622 188C174.529 194.565 169.216 202.24 169.216 206.433C169.216 208.682 172.064 212.201 174.098 212.201C176.131 212.201 181.271 211.891 182.396 205.085C184.153 194.462 191.671 177.52 194.761 174.002C197.85 170.483 222.765 146.287 223.807 144.565C224.85 142.843 212.153 131.007 207.845 135.803Z" fill="#DE8E68"/>
<path d="M260.045 113.53C268.459 110.654 287.265 139.135 284.098 141.852C280.932 144.569 262.686 151.062 259.399 148.682C256.111 146.302 251.157 116.564 260.045 113.53Z" fill="#F9C87A"/>
<path d="M251.497 108.215C289.07 112.118 267.696 180.464 263.03 194.946C254.845 198.353 215.953 197.008 212.769 189.876C211.52 180.892 216.6 105.91 251.497 108.215Z" fill="#FED385"/>
<path d="M258.205 115.112C258.205 117.195 246.848 117.306 246.848 115.112V99.7139H258.205V115.112Z" fill="#D37C59"/>
<path d="M256.228 69.8887C249.252 69.8887 243.6 78.0362 243.6 88.0877C243.6 88.6351 243.6 89.1706 243.652 89.7061C243.14 89.8939 242.712 90.2338 242.435 90.6717C242.158 91.1095 242.049 91.6201 242.123 92.122C242.198 92.624 242.453 93.0885 242.848 93.4414C243.243 93.7943 243.755 94.0154 244.302 94.0695C246.025 101.186 250.709 106.291 256.228 106.291C263.199 106.291 268.851 98.1432 268.851 88.0917C268.851 78.0402 263.22 69.8887 256.228 69.8887Z" fill="#DE8E68"/>
<path d="M255.68 67.2152C251.372 67.2152 241.032 70.3885 236.724 70.3885C224.613 70.3885 224.91 66.4219 212.597 66.4219C206.135 66.4219 198.879 70.3211 190.625 73.5619C182.051 76.9256 170.806 76.3861 170.806 90.6185C170.806 95.3785 172.431 110.849 190.194 110.849C203.162 110.849 215.682 100.139 227.676 100.139C232.657 100.139 236.362 101.329 240.601 101.329C243.186 101.329 246.202 100.932 247.064 100.139V93.3952C247.064 93.3952 246.499 93.7919 244.479 93.7919C243.617 93.7919 242.755 92.2052 242.755 91.4119C242.755 87.2469 266.451 85.2199 266.451 77.5285C267.115 78.6035 268.067 81.5388 268.226 82.4234C268.972 81.5309 270.432 80.0434 270.432 77.3421C270.432 71.8681 265.762 67.2152 255.68 67.2152Z" fill="black"/>
<path d="M235.961 114.109C243.613 118.421 230.925 149.635 226.647 149.016C222.368 148.397 205.536 139.214 205.536 135.367C205.536 131.519 227.892 109.559 235.961 114.109Z" fill="#FED892"/>
<path d="M324.437 196.734C327.352 196.734 329.715 194.559 329.715 191.875C329.715 189.192 327.352 187.016 324.437 187.016C321.522 187.016 319.159 189.192 319.159 191.875C319.159 194.559 321.522 196.734 324.437 196.734Z" fill="#DE8E68"/>
<path d="M91.3434 25.9737C100.78 31.3283 107.795 39.6448 111.094 49.3884C114.392 59.1321 113.752 69.6454 109.291 78.9884C104.83 88.3314 96.849 95.8736 86.8211 100.223C76.7932 104.573 65.3949 105.437 54.7296 102.655C44.0642 99.8731 34.8515 93.6337 28.7914 85.0878C22.7313 76.542 20.2327 66.2665 21.7568 56.1575C23.2809 46.0484 28.7248 36.788 37.0839 30.0849C45.443 23.3819 56.1532 19.6886 67.2382 19.6865V61.9672L91.3434 25.9737Z" stroke="#31B3C2" stroke-width="5" stroke-linecap="round" stroke-linejoin="round"/>
<path d="M67.2383 61.9673H113.161" stroke="#F98B67" stroke-width="5" stroke-linecap="round" stroke-linejoin="round"/>
<path d="M147.757 53.8948C148.838 53.8948 152.431 44.1924 159.682 44.1924C166.08 44.1924 162.909 64.3827 176.006 64.3827C186.484 64.3827 189.289 51.1459 193.369 51.1459C195.502 51.1459 195.381 52.6056 197.514 52.6056C202.684 52.6056 203.42 33.4229 210.792 33.4229" stroke="#F98B67" stroke-width="5" stroke-linecap="round" stroke-linejoin="round"/>
<path d="M26.2056 198.793L52.7966 174.311L66.8547 187.25L121.764 136.695L132.147 146.259L161.647 119.095L181.745 137.6L217.745 104.454" stroke="#FBDC8E" stroke-width="5" stroke-linecap="round" stroke-linejoin="round"/>
</svg>
