<svg width="651" height="525" viewBox="0 0 651 525" fill="none" xmlns="http://www.w3.org/2000/svg">
<g clip-path="url(#clip0)">
<path d="M290.145 433.156C320.602 433.156 345.292 427.645 345.292 420.847C345.292 414.049 320.602 408.538 290.145 408.538C259.688 408.538 234.998 414.049 234.998 420.847C234.998 427.645 259.688 433.156 290.145 433.156Z" fill="black"/>
<path d="M290.145 420.847L259.168 518.744" stroke="black" stroke-width="4" stroke-miterlimit="10" stroke-linecap="round"/>
<path d="M290.145 420.847L321.122 518.744" stroke="black" stroke-width="4" stroke-miterlimit="10" stroke-linecap="round"/>
<path d="M269.339 486.6L303.873 464.241" stroke="black" stroke-width="2" stroke-miterlimit="10" stroke-linecap="round"/>
<path d="M276.277 464.241L310.82 486.6" stroke="black" stroke-width="2" stroke-miterlimit="10" stroke-linecap="round"/>
<path d="M344.418 314.876C344.279 319.218 344.34 334.421 343.632 340.924" stroke="#1F161E" stroke-miterlimit="10" stroke-linecap="round"/>
<path d="M167.005 122.612C167.005 119.527 164.529 117.026 161.474 117.026C158.419 117.026 155.943 119.527 155.943 122.612V141.891C155.943 144.976 158.419 147.476 161.474 147.476C164.529 147.476 167.005 144.976 167.005 141.891V122.612Z" fill="black"/>
<path d="M161.474 179.885C167.603 179.885 172.572 174.868 172.572 168.68C172.572 162.491 167.603 157.474 161.474 157.474C155.345 157.474 150.377 162.491 150.377 168.68C150.377 174.868 155.345 179.885 161.474 179.885Z" fill="#FBDC8E"/>
<path d="M532.483 301.765H537.726C538.277 301.763 538.805 301.541 539.194 301.147C539.584 300.754 539.803 300.221 539.806 299.665V267.124C539.807 266.848 539.753 266.575 539.648 266.32C539.543 266.066 539.389 265.835 539.194 265.641L532.57 258.953C532.378 258.758 532.149 258.602 531.898 258.496C531.646 258.39 531.375 258.336 531.102 258.335H511.537C510.987 258.338 510.459 258.56 510.069 258.953C509.68 259.346 509.46 259.879 509.458 260.435V263.577" fill="#FBDC8E"/>
<path d="M76.9491 379.412C93.5517 382.588 90.5895 482.647 58.7211 476.594C28.6265 470.824 56.6938 375.521 76.9491 379.412Z" fill="black"/>
<path d="M4.05454 391.765C17.2668 384.212 72.5712 454.482 47.2739 468.935C23.3748 482.647 -12.0326 400.977 4.05454 391.765Z" fill="#FBDC8E"/>
<path d="M71.3828 524.929H38.0202C36.6764 524.929 35.3799 524.428 34.3787 523.523C33.3776 522.618 32.7421 521.372 32.5937 520.023L28.3819 481.835C28.2905 481.061 28.3627 480.275 28.5937 479.531C28.8246 478.787 29.209 478.1 29.7217 477.517C30.2343 476.933 30.8635 476.466 31.5679 476.146C32.2723 475.825 33.0358 475.659 33.8083 475.659H75.4199C76.1862 475.659 76.9438 475.823 77.6435 476.138C78.3432 476.454 78.9693 476.914 79.4811 477.49C79.9929 478.066 80.379 478.744 80.6142 479.481C80.8494 480.217 80.9285 480.995 80.8463 481.765L76.818 519.953C76.6838 521.315 76.0534 522.578 75.0492 523.498C74.045 524.417 72.7384 524.927 71.3828 524.929Z" fill="#969696"/>
<path d="M86.3252 340.447C98.9695 344.153 89.2787 421.385 65.065 414.274C42.2058 407.568 70.9371 335.929 86.3252 340.447Z" fill="#31B3C2"/>
<path d="M107.175 401.894C115.913 409.5 80.3657 467.682 63.5708 453.07C47.7108 439.332 96.5053 392.647 107.175 401.894Z" fill="#FBDC8E"/>
<path d="M54.7888 348.477C73.7159 348.477 91.0439 470.506 54.7888 470.506C20.5523 470.506 31.7461 348.477 54.7888 348.477Z" fill="#78E5E1"/>
<path d="M88.003 467.4H21.4175C19.463 467.4 17.8785 469 17.8785 470.973V477.485C17.8785 479.459 19.463 481.059 21.4175 481.059H88.003C89.9576 481.059 91.542 479.459 91.542 477.485V470.973C91.542 469 89.9576 467.4 88.003 467.4Z" fill="#D8D8D8"/>
<path d="M523.675 263.576H504.451C504.143 263.576 503.837 263.638 503.553 263.757C503.268 263.876 503.009 264.051 502.792 264.272C502.574 264.492 502.402 264.754 502.285 265.042C502.168 265.33 502.108 265.638 502.109 265.95V304.597C502.109 305.225 502.355 305.827 502.794 306.272C503.233 306.717 503.829 306.968 504.451 306.97H530.133C530.754 306.968 531.35 306.717 531.789 306.272C532.228 305.827 532.474 305.225 532.474 304.597V272.479C532.476 272.168 532.416 271.86 532.299 271.572C532.182 271.285 532.01 271.023 531.793 270.803L525.327 264.273C524.889 263.829 524.295 263.579 523.675 263.576Z" fill="#D8D8D8"/>
<path d="M532.483 271.553H525.956C525.608 271.553 525.275 271.413 525.029 271.165C524.783 270.917 524.645 270.58 524.645 270.229V263.576" fill="#969696"/>
<path d="M539.832 266.321H533.305C532.955 266.318 532.621 266.177 532.374 265.928C532.127 265.679 531.987 265.341 531.985 264.988V258.335" fill="#64CCC4"/>
<path d="M502.135 219.397H457.081C455.618 219.397 454.433 220.594 454.433 222.071V236.929C454.433 238.406 455.618 239.603 457.081 239.603H502.135C503.598 239.603 504.783 238.406 504.783 236.929V222.071C504.783 220.594 503.598 219.397 502.135 219.397Z" fill="#78E5E1"/>
<path d="M479.599 253.456L485.664 234.909H473.535L479.599 253.456Z" fill="#78E5E1"/>
<path d="M467.584 224.779L462.499 233.665H472.661L467.584 224.779Z" fill="white"/>
<path d="M491.623 233.665L496.709 224.779H486.537L491.623 233.665Z" fill="white"/>
<path d="M479.599 233.082C481.708 233.082 483.418 231.356 483.418 229.227C483.418 227.097 481.708 225.371 479.599 225.371C477.49 225.371 475.781 227.097 475.781 229.227C475.781 231.356 477.49 233.082 479.599 233.082Z" fill="white"/>
<path d="M475.676 176.577H446.105C444.827 176.577 443.79 177.624 443.79 178.915V196.968C443.79 198.259 444.827 199.306 446.105 199.306H475.676C476.955 199.306 477.991 198.259 477.991 196.968V178.915C477.991 177.624 476.955 176.577 475.676 176.577Z" fill="#D8D8D8"/>
<path d="M444.865 177.291L460.891 187.941" stroke="#969696" stroke-width="0.82" stroke-linecap="round" stroke-linejoin="round"/>
<path d="M477.991 176.577L460.891 187.941" stroke="#969696" stroke-width="0.82" stroke-linecap="round" stroke-linejoin="round"/>
<path d="M477.991 181.518C480.694 181.518 482.885 179.305 482.885 176.576C482.885 173.847 480.694 171.635 477.991 171.635C475.289 171.635 473.098 173.847 473.098 176.576C473.098 179.305 475.289 181.518 477.991 181.518Z" fill="#FBDC8E"/>
<path d="M479.174 179.041H478.511V174.646L477.182 175.134V174.536L479.071 173.826H479.174V179.041Z" fill="white"/>
<path d="M649.628 190.438H522.05C521.456 190.438 520.975 190.924 520.975 191.523V192.194C520.975 192.793 521.456 193.279 522.05 193.279H649.628C650.222 193.279 650.703 192.793 650.703 192.194V191.523C650.703 190.924 650.222 190.438 649.628 190.438Z" fill="#D8D8D8"/>
<path d="M575.938 134.021H568.188C566.952 134.021 565.951 135.032 565.951 136.279V188.179C565.951 189.427 566.952 190.438 568.188 190.438H575.938C577.174 190.438 578.175 189.427 578.175 188.179V136.279C578.175 135.032 577.174 134.021 575.938 134.021Z" fill="#969696"/>
<path d="M582.431 147.247H580.037C579.009 147.247 578.175 148.089 578.175 149.126V188.559C578.175 189.597 579.009 190.438 580.037 190.438H582.431C583.459 190.438 584.292 189.597 584.292 188.559V149.126C584.292 148.089 583.459 147.247 582.431 147.247Z" fill="#D8D8D8"/>
<path d="M588.609 147.247H586.092C585.098 147.247 584.292 148.061 584.292 149.065V188.621C584.292 189.624 585.098 190.438 586.092 190.438H588.609C589.603 190.438 590.409 189.624 590.409 188.621V149.065C590.409 148.061 589.603 147.247 588.609 147.247Z" fill="#969696"/>
<path d="M593.044 150.338L590.98 151.296C590.015 151.743 589.592 152.895 590.035 153.87L606.277 189.593C606.72 190.568 607.861 190.995 608.826 190.548L610.891 189.59C611.856 189.143 612.279 187.991 611.836 187.016L595.594 151.293C595.151 150.318 594.009 149.891 593.044 150.338Z" fill="#D8D8D8"/>
<path d="M572.059 176.162C573.946 176.162 575.475 174.617 575.475 172.712C575.475 170.806 573.946 169.262 572.059 169.262C570.172 169.262 568.642 170.806 568.642 172.712C568.642 174.617 570.172 176.162 572.059 176.162Z" fill="#D8D8D8"/>
<path d="M575.152 178.227H568.965C568.512 178.227 568.144 178.598 568.144 179.056C568.144 179.514 568.512 179.885 568.965 179.885H575.152C575.606 179.885 575.973 179.514 575.973 179.056C575.973 178.598 575.606 178.227 575.152 178.227Z" fill="#D8D8D8"/>
<path d="M575.152 182.471H568.965C568.512 182.471 568.144 182.842 568.144 183.3C568.144 183.758 568.512 184.13 568.965 184.13H575.152C575.606 184.13 575.973 183.758 575.973 183.3C575.973 182.842 575.606 182.471 575.152 182.471Z" fill="#D8D8D8"/>
<path d="M512.551 267.564H506.364C505.911 267.564 505.543 267.936 505.543 268.394C505.543 268.852 505.911 269.223 506.364 269.223H512.551C513.005 269.223 513.372 268.852 513.372 268.394C513.372 267.936 513.005 267.564 512.551 267.564Z" fill="#969696"/>
<path d="M512.551 271.553H506.364C505.911 271.553 505.543 271.924 505.543 272.382C505.543 272.84 505.911 273.212 506.364 273.212H512.551C513.005 273.212 513.372 272.84 513.372 272.382C513.372 271.924 513.005 271.553 512.551 271.553Z" fill="#969696"/>
<path d="M528.595 278.374H506.006C505.553 278.374 505.185 278.745 505.185 279.203C505.185 279.661 505.553 280.032 506.006 280.032H528.595C529.048 280.032 529.416 279.661 529.416 279.203C529.416 278.745 529.048 278.374 528.595 278.374Z" fill="#969696"/>
<path d="M528.595 282.291H506.006C505.553 282.291 505.185 282.662 505.185 283.12C505.185 283.578 505.553 283.95 506.006 283.95H528.595C529.048 283.95 529.416 283.578 529.416 283.12C529.416 282.662 529.048 282.291 528.595 282.291Z" fill="#969696"/>
<path d="M528.595 286.209H506.006C505.553 286.209 505.185 286.58 505.185 287.038C505.185 287.496 505.553 287.868 506.006 287.868H528.595C529.048 287.868 529.416 287.496 529.416 287.038C529.416 286.58 529.048 286.209 528.595 286.209Z" fill="#969696"/>
<path d="M581.872 153.768C581.872 153.412 581.586 153.124 581.234 153.124C580.882 153.124 580.596 153.412 580.596 153.768V183.909C580.596 184.265 580.882 184.553 581.234 184.553C581.586 184.553 581.872 184.265 581.872 183.909V153.768Z" fill="#969696"/>
<path d="M555.037 191.859H549.566C548.365 191.859 547.391 192.843 547.391 194.056C547.391 195.269 548.365 196.253 549.566 196.253H555.037C556.238 196.253 557.212 195.269 557.212 194.056C557.212 192.843 556.238 191.859 555.037 191.859Z" fill="#D8D8D8"/>
<path d="M622.111 191.859H616.641C615.439 191.859 614.465 192.843 614.465 194.056C614.465 195.269 615.439 196.253 616.641 196.253H622.111C623.313 196.253 624.287 195.269 624.287 194.056C624.287 192.843 623.313 191.859 622.111 191.859Z" fill="#D8D8D8"/>
<path d="M415.635 196.156H383.732C377.941 196.156 373.246 200.896 373.246 206.744V222.459C373.246 228.306 377.941 233.047 383.732 233.047H415.635C421.426 233.047 426.121 228.306 426.121 222.459V206.744C426.121 200.896 421.426 196.156 415.635 196.156Z" fill="#D8D8D8"/>
<path d="M392.138 202.094H384.186V227.109H392.138V202.094Z" fill="#31B3C2"/>
<path d="M403.664 218.735H395.712V227.118H403.664V218.735Z" fill="#31B3C2"/>
<path d="M415.181 211.676H407.229V227.109H415.181V211.676Z" fill="#31B3C2"/>
<path d="M161.474 134.894C157.08 134.893 152.728 135.766 148.667 137.463C144.607 139.161 140.918 141.649 137.81 144.786C134.702 147.924 132.236 151.649 130.554 155.748C128.872 159.848 128.007 164.242 128.007 168.679H194.942C194.942 164.242 194.076 159.848 192.394 155.748C190.712 151.649 188.247 147.924 185.139 144.786C182.031 141.649 178.341 139.161 174.281 137.463C170.221 135.766 165.869 134.893 161.474 134.894Z" fill="#31B3C2"/>
<path d="M161.474 123.459V0.882324" stroke="black" stroke-width="2" stroke-linecap="round" stroke-linejoin="round"/>
<path d="M423.971 507.07C423.971 509.161 422.757 522.353 425.177 523.57C427.598 524.788 454.206 525.529 455.412 524.303C456.618 523.076 457.343 520.517 456.286 519.785C455.228 519.053 444.926 516.979 443.528 516C442.13 515.02 440.198 509.823 440.906 507.07" fill="#1F161E"/>
<path d="M344.418 334.632L359.396 329.206C358.749 301.615 352.361 239.965 343.291 230.797C341.159 228.653 298.988 224.912 291.464 224.912C246.567 224.912 233.25 230.082 229.869 233.506C219.383 244.094 216.115 293.153 216.115 310.332C216.115 327.512 264.175 336.423 264.175 336.423L320.51 340.332C320.51 340.332 332.866 341.62 343.553 342.256C343.789 338.947 344.418 334.632 344.418 334.632Z" fill="#78E5E1"/>
<path d="M389.045 350.63C393.143 349.403 433.898 342.688 442.776 351.512C451.654 360.335 479.599 486.838 479.599 489.75H457.098L426.724 423.741" fill="#1F161E"/>
<path d="M240.66 339.379C239.638 344.541 233.495 350.082 233.495 378.203C233.495 417.088 265.04 417.909 276.365 417.909C311.65 417.909 368.737 407.321 372.59 405.379C375.151 409.703 422.276 506.85 422.495 509.021H444.192C444.192 509.021 430.744 363.679 406.477 347.197C398.595 341.903 258.757 336.238 240.66 339.379Z" fill="#55B79D"/>
<path d="M367.715 310.95C362.017 310.95 357.316 312.318 344.418 314.877L343.745 339.794C355.979 334.818 358.819 327.9 362.367 327.9C371.227 327.9 375.859 332.515 381.093 332.515C384.745 332.515 391.317 329.621 391.317 325.685C391.317 317.444 374.775 310.95 367.715 310.95Z" fill="#F8CDBA"/>
<path d="M458.374 488.003C458.374 490.103 457.159 503.285 459.58 504.512C462 505.738 488.608 506.462 489.814 505.244C491.02 504.026 491.745 501.459 490.688 500.726C489.631 499.994 479.328 497.912 477.93 496.932C476.532 495.953 474.601 490.756 475.309 488.003" fill="#1F161E"/>
<path d="M299.408 230.779C299.408 234.106 280.28 234.203 280.28 230.779V203.727H299.408V230.779Z" fill="#F8CDBA"/>
<path d="M293.177 212.647C291.43 212.647 280.28 217.624 280.28 220.403V205.721C283.058 205.721 293.177 212.647 293.177 212.647Z" fill="#1F161E"/>
<path d="M296.873 213.794C309.662 213.794 320.03 203.325 320.03 190.412C320.03 177.498 309.662 167.029 296.873 167.029C284.085 167.029 273.717 177.498 273.717 190.412C273.717 203.325 284.085 213.794 296.873 213.794Z" fill="#F8CDBA"/>
<path d="M320.773 172.059C317.906 176.656 311.912 178.765 305.419 178.765C299.888 178.765 291.831 177.141 286.099 180.441C282.997 182.206 279.441 186.221 278.724 194.259C278.724 195.635 277.177 200.974 277.177 202.694C277.177 203.868 275.867 204.635 273.682 204.635C272.555 204.635 270.327 202.791 270.327 199.977C270.327 196.721 271.611 195.565 271.611 192.803C271.611 190.041 268.264 187.385 268.264 179.709C268.264 168.653 275.255 161.841 280.201 161.841C284.71 161.841 286.125 162.9 286.693 163.35C286.693 153.3 299.801 148.712 305 148.712C310.942 148.712 313.738 151.174 313.738 154.306C313.738 159.3 311.379 163.544 310.182 164.497C312.892 162.036 316.411 160.68 320.056 160.694C326.863 160.694 329.153 165.212 329.153 168.3C329.153 175.015 321.175 181.235 318.204 181.235C317.456 179.639 316.579 178.107 315.582 176.656" fill="#1F161E"/>
<path d="M279.441 198.485C282.167 198.485 284.378 196.253 284.378 193.5C284.378 190.747 282.167 188.515 279.441 188.515C276.714 188.515 274.504 190.747 274.504 193.5C274.504 196.253 276.714 198.485 279.441 198.485Z" fill="#F8CDBA"/>
<path d="M320.257 194.7C322.371 194.7 324.084 193.799 324.084 192.688C324.084 191.577 322.371 190.676 320.257 190.676C318.143 190.676 316.43 191.577 316.43 192.688C316.43 193.799 318.143 194.7 320.257 194.7Z" fill="#FA9E9F"/>
<path d="M296.183 194.7C298.297 194.7 300.011 193.799 300.011 192.688C300.011 191.577 298.297 190.676 296.183 190.676C294.069 190.676 292.356 191.577 292.356 192.688C292.356 193.799 294.069 194.7 296.183 194.7Z" fill="#FA9E9F"/>
<path d="M310.907 188.515C311.624 189.547 315.276 193.879 311.423 195.635" stroke="#1F161E" stroke-miterlimit="10" stroke-linecap="round"/>
<path d="M303.707 200.691C302.553 200.691 300.779 199.244 299.844 197.947" stroke="#1F161E" stroke-miterlimit="10" stroke-linecap="round"/>
<path d="M334.238 263.488C335.986 267.238 344.418 303.415 344.418 314.877" stroke="#1F161E" stroke-miterlimit="10" stroke-linecap="round"/>
<path d="M216.115 307.42C216.115 348.088 216.49 359.885 232.656 359.885C269.916 359.885 326.243 329.003 336.283 329.003C345.152 329.003 349.784 333.626 355.018 333.626C358.662 333.626 365.233 330.723 365.233 326.797C365.233 318.547 348.691 312.053 341.64 312.053C325.762 312.053 262.401 327.512 260.854 327.512C259.308 327.512 256.704 326.832 256.704 324.203C256.704 319.429 259.797 308.4 260.199 307.438L216.115 307.42Z" fill="#F8CDBA"/>
<path d="M269.505 271.95C268.439 275.047 260.129 307.05 259.168 310.95" stroke="#1F161E" stroke-miterlimit="10" stroke-linecap="round"/>
<path d="M584.99 519.482C585.618 521.895 588.064 523.337 590.454 522.703C592.844 522.068 594.272 519.598 593.644 517.185L548.905 345.354C548.277 342.941 545.83 341.499 543.44 342.133C541.051 342.768 539.623 345.238 540.251 347.651L584.99 519.482Z" fill="#969696"/>
<path d="M539.806 347.658C540.435 345.245 539.007 342.775 536.617 342.14C534.227 341.506 531.781 342.948 531.152 345.361L486.414 517.192C485.785 519.605 487.213 522.076 489.603 522.71C491.993 523.345 494.439 521.903 495.068 519.49L539.806 347.658Z" fill="#969696"/>
<path d="M478.072 347.657C478.7 345.244 477.272 342.774 474.883 342.139C472.493 341.505 470.046 342.947 469.418 345.36L424.68 517.191C424.051 519.604 425.479 522.075 427.869 522.709C430.259 523.344 432.705 521.902 433.333 519.489L478.072 347.657Z" fill="#D8D8D8"/>
<path d="M522.477 516.311C523.095 518.731 525.539 520.187 527.936 519.564C530.332 518.94 531.775 516.472 531.157 514.052L487.169 341.711C486.551 339.291 484.107 337.835 481.71 338.459C479.313 339.083 477.871 341.55 478.489 343.97L522.477 516.311Z" fill="#D8D8D8"/>
<path d="M226.042 347.662C226.671 345.249 225.243 342.778 222.853 342.144C220.463 341.509 218.017 342.951 217.389 345.364L172.65 517.196C172.022 519.609 173.45 522.079 175.839 522.714C178.229 523.348 180.675 521.906 181.304 519.493L226.042 347.662Z" fill="#969696"/>
<path d="M270.466 519.494C271.094 521.907 273.54 523.349 275.93 522.714C278.32 522.08 279.748 519.609 279.12 517.196L234.381 345.365C233.753 342.952 231.306 341.51 228.916 342.144C226.527 342.779 225.099 345.249 225.727 347.662L270.466 519.494Z" fill="#969696"/>
<path d="M567.349 333.653H134.657C132.47 333.653 130.698 335.442 130.698 337.65V343.023C130.698 345.231 132.47 347.02 134.657 347.02H567.349C569.535 347.02 571.307 345.231 571.307 343.023V337.65C571.307 335.442 569.535 333.653 567.349 333.653Z" fill="#D8D8D8"/>
<path d="M162.1 347.664C162.729 345.251 161.301 342.781 158.911 342.146C156.521 341.512 154.075 342.954 153.446 345.367L108.708 517.198C108.079 519.611 109.507 522.082 111.897 522.716C114.287 523.35 116.733 521.909 117.362 519.496L162.1 347.664Z" fill="#D8D8D8"/>
<path d="M206.523 519.494C207.151 521.907 209.598 523.349 211.988 522.714C214.377 522.08 215.805 519.609 215.177 517.196L170.438 345.365C169.81 342.952 167.363 341.51 164.974 342.144C162.584 342.779 161.156 345.249 161.784 347.662L206.523 519.494Z" fill="#D8D8D8"/>
<path d="M454.634 333.653H373.796L388.442 282.794C388.808 281.567 389.557 280.492 390.577 279.731C391.598 278.969 392.835 278.561 394.104 278.568H462.699C463.6 278.553 464.492 278.751 465.304 279.146C466.116 279.541 466.825 280.122 467.375 280.843C467.925 281.564 468.301 282.404 468.472 283.298C468.643 284.191 468.606 285.112 468.362 285.988L454.634 333.653Z" fill="black"/>
<path d="M424.138 311.1C426.869 311.1 429.083 308.864 429.083 306.106C429.083 303.348 426.869 301.112 424.138 301.112C421.406 301.112 419.192 303.348 419.192 306.106C419.192 308.864 421.406 311.1 424.138 311.1Z" fill="white"/>
<path d="M383.4 330.08H326.68V333.653H383.4V330.08Z" fill="black"/>
</g>
<defs>
<clipPath id="clip0">
<rect width="651" height="525" fill="white"/>
</clipPath>
</defs>
</svg>
