<svg width="485" height="398" viewBox="0 0 485 398" fill="none" xmlns="http://www.w3.org/2000/svg">
<path d="M287.382 175.5C287.382 168.273 268.395 150.754 253.177 150.754C241.49 150.754 241.3 155.812 229.912 155.812C212.355 155.812 199.327 131.791 165.562 131.791C129.588 131.791 82.5816 159.423 82.5816 181.097C82.5816 212.135 287.382 219.573 287.382 175.5Z" fill="#E2E2E2"/>
<path d="M378.038 281.817C378.442 248.095 379.089 193.925 379.089 185.908C379.089 174.145 357.743 138.912 320.403 138.912C279.496 138.912 259.281 177.332 232.506 177.332C207.964 177.332 206.029 167.162 175.65 167.162C155.855 167.162 115.126 187.924 115.126 209.149L142.237 281.8L378.038 281.817Z" fill="#F3F3F3"/>
<path d="M245.664 225.79C245.79 223.651 244.943 221.879 243.773 221.833C242.604 221.787 241.553 223.483 241.427 225.623C241.301 227.762 242.147 229.534 243.317 229.58C244.487 229.626 245.538 227.929 245.664 225.79Z" fill="#D37C59"/>
<path d="M238.537 245.45C238.456 244.808 240.282 231.488 241.736 227.266C242.603 227.006 243.527 226.9 244.447 226.956L244.31 240.081L242.29 246.253L238.537 245.45Z" fill="#D37C59"/>
<path d="M250.862 226.903L238.161 227.762L237.757 225.706L249.982 222.542L250.862 226.903Z" fill="black"/>
<path d="M225.561 331.262H219.998V335.114H225.561V331.262Z" fill="#DE8E68"/>
<path d="M242.771 331.864H237.208V335.715H242.771V331.864Z" fill="#DE8E68"/>
<path d="M219.421 267.045V331.474H225.937L233.427 297.005C233.427 297.005 234.457 278.358 219.421 267.045Z" fill="#56CAD8"/>
<path d="M240.884 265.775C241.066 267.633 243.332 301.441 243.332 301.441V332.224L236.646 332.809L232.348 300.079L219.421 267.045C221.376 266.166 235.697 264.509 240.884 265.775Z" fill="#74D5DE"/>
<path d="M228.971 237.446C241.813 237.446 242.423 264.169 240.896 265.775C239.369 267.382 221.101 268.477 219.421 267.042C217.74 265.607 212.969 237.446 228.971 237.446Z" fill="#FED385"/>
<path d="M247.79 225.789C247.916 223.649 247.07 221.878 245.9 221.831C244.73 221.785 243.679 223.482 243.553 225.621C243.427 227.761 244.274 229.532 245.444 229.578C246.614 229.625 247.664 227.928 247.79 225.789Z" fill="#DE8E68"/>
<path d="M236.687 335.114V338.965H249.913V337.563L243.033 335.114H236.687Z" fill="black"/>
<path d="M219.825 334.505V338.357H233.051V336.955L226.171 334.505H219.825Z" fill="black"/>
<path d="M238.079 226.082L236.539 226.28L236.781 227.541L238.321 227.343L238.079 226.082Z" fill="black"/>
<path d="M229.912 239.77C229.912 240.653 224.899 240.762 224.899 239.77V231.009H229.912V239.77Z" fill="#D37C59"/>
<path d="M229.759 235.046C232.666 235.046 235.022 232.102 235.022 228.47C235.022 224.838 232.666 221.894 229.759 221.894C226.851 221.894 224.495 224.838 224.495 228.47C224.495 232.102 226.851 235.046 229.759 235.046Z" fill="#DC8E6C"/>
<path d="M220.592 225.759C220.592 223.732 221.671 222.453 222.548 222.046C224.24 221.253 224.947 221.606 226.652 220.988C228.498 220.327 230.082 218.396 232.243 218.396C234.263 218.396 234.081 219.335 235.451 219.613C236.259 219.775 240.848 218.912 240.848 221.342C240.848 225.084 235.77 225.389 234.594 225.868C234.418 225.437 234.213 225.014 233.98 224.602C233.055 225.382 229.706 225.924 229.165 226.099C227.912 226.523 227.314 228.126 227.314 229.174C227.314 230.222 226.155 230.225 225.864 230.225C223.186 230.225 220.592 228.82 220.592 225.759Z" fill="#FB836D"/>
<path d="M224.996 231.009C225.962 231.009 226.745 230.368 226.745 229.577C226.745 228.787 225.962 228.146 224.996 228.146C224.03 228.146 223.246 228.787 223.246 229.577C223.246 230.368 224.03 231.009 224.996 231.009Z" fill="#DC8E6C"/>
<path d="M217.433 242.55C217.433 240.255 215.16 238.395 212.355 238.395C209.551 238.395 207.277 240.255 207.277 242.55V262.212C207.277 264.507 209.551 266.367 212.355 266.367C215.16 266.367 217.433 264.507 217.433 262.212V242.55Z" fill="#D3D3D3"/>
<path d="M220.237 260.145C227.015 260.145 232.51 255.277 232.51 249.272C232.51 243.266 227.015 238.398 220.237 238.398C213.459 238.398 207.964 243.266 207.964 249.272C207.964 255.277 213.459 260.145 220.237 260.145Z" stroke="#D3D3D3" stroke-width="3.69" stroke-miterlimit="10"/>
<path d="M233.144 244.508C234.166 244.508 239.321 244.683 241.417 245.301C241.579 244.465 242.492 232.483 244.047 228.47C244.641 227.934 247.057 227.997 247.057 228.47C247.057 228.943 250.495 248.597 247.057 250.928C243.619 253.259 231.96 250.135 231.48 249.827C230.999 249.52 233.144 244.508 233.144 244.508Z" fill="#DE8E68"/>
<path d="M222.164 243.8C223.303 240.005 233.621 243.162 234.554 244.028C235.673 245.066 233.673 250.918 232.13 251.189C229.613 251.635 220.685 248.723 222.164 243.8Z" fill="#FED892"/>
<path d="M107.725 113.859L57.737 281.817H157.717L107.725 113.859Z" fill="#FED892"/>
<path d="M68.6364 113.859L18.6442 296.436H118.624L68.6364 113.859Z" fill="#56CAD8"/>
<path d="M68.907 295.623V131.615" stroke="#FED385" stroke-width="3.84" stroke-linecap="round" stroke-linejoin="round"/>
<path d="M68.907 185.699L79.7699 176.036" stroke="#FED385" stroke-width="3.84" stroke-linecap="round" stroke-linejoin="round"/>
<path d="M68.907 231.981L85.2317 217.461" stroke="#FED385" stroke-width="3.84" stroke-linecap="round" stroke-linejoin="round"/>
<path d="M68.907 280.263L94.297 257.676" stroke="#FED385" stroke-width="3.84" stroke-linecap="round" stroke-linejoin="round"/>
<path d="M68.907 185.699L58.044 176.036" stroke="#FED385" stroke-width="3.84" stroke-linecap="round" stroke-linejoin="round"/>
<path d="M68.907 231.981L52.5863 217.461" stroke="#FED385" stroke-width="3.84" stroke-linecap="round" stroke-linejoin="round"/>
<path d="M68.907 280.263L43.5171 257.676" stroke="#FED385" stroke-width="3.84" stroke-linecap="round" stroke-linejoin="round"/>
<path d="M104.421 243.684H104.417C89.3143 243.684 77.0714 253.704 77.0714 266.063V286.488C77.0714 298.847 89.3143 308.867 104.417 308.867H104.421C119.523 308.867 131.766 298.847 131.766 286.488V266.063C131.766 253.704 119.523 243.684 104.421 243.684Z" fill="#74D5DE"/>
<path d="M104.417 325.873V264.02" stroke="#FED385" stroke-width="3.69" stroke-linecap="round" stroke-linejoin="round"/>
<path d="M104.417 290.323C119.364 290.323 119.364 282.957 119.364 271.809" stroke="#FED385" stroke-width="3.69" stroke-linecap="round" stroke-linejoin="round"/>
<path d="M104.417 279.056C94.0546 279.056 94.0546 273.941 94.0546 266.215" stroke="#FED385" stroke-width="3.69" stroke-linecap="round" stroke-linejoin="round"/>
<path d="M465.645 281.816V221.61C465.619 214.489 462.152 207.667 455.999 202.632C449.847 197.597 441.51 194.759 432.809 194.738C431.041 194.739 429.275 194.856 427.53 195.088V125.803C427.53 120.925 425.162 116.247 420.947 112.797C416.733 109.348 411.017 107.409 405.056 107.408C399.095 107.408 393.378 109.346 389.162 112.796C384.947 116.246 382.579 120.925 382.579 125.803V140.634C379.197 139.691 375.649 139.21 372.076 139.209C363.374 139.23 355.037 142.069 348.884 147.104C342.732 152.14 339.265 158.963 339.24 166.084V215.47H324.944C319 215.485 313.304 217.424 309.101 220.864C304.898 224.304 302.529 228.965 302.511 233.829V276.586C302.511 278.358 302.827 280.12 303.448 281.816H465.645Z" fill="#FED385"/>
<path d="M404.155 245.837C441.164 245.837 441.164 232.282 441.164 211.784" stroke="#74D5DE" stroke-width="3.69" stroke-linecap="round" stroke-linejoin="round"/>
<path d="M404.192 263.898C383.831 263.898 383.831 256.439 383.831 245.162" stroke="#74D5DE" stroke-width="3.69" stroke-linecap="round" stroke-linejoin="round"/>
<path d="M404.155 281.816V121.304" stroke="#74D5DE" stroke-width="3.69" stroke-linecap="round" stroke-linejoin="round"/>
<path d="M404.155 211.784L383.868 195.178" stroke="#74D5DE" stroke-width="3.69" stroke-linecap="round" stroke-linejoin="round"/>
<path d="M404.155 177.52L416.432 167.476" stroke="#74D5DE" stroke-width="3.69" stroke-linecap="round" stroke-linejoin="round"/>
<path d="M303.295 113.859C304.379 110.235 303.84 106.413 301.776 103.087C299.712 99.7601 296.26 97.1492 292.045 95.7275C287.83 94.3058 283.132 94.1675 278.804 95.3377C274.475 96.5079 270.802 98.909 268.452 102.106C266.149 101.254 263.622 100.889 261.102 101.042C258.583 101.196 256.15 101.864 254.027 102.985C251.904 104.107 250.158 105.645 248.949 107.461C247.74 109.277 247.106 111.311 247.105 113.379C247.105 113.541 247.105 113.71 247.105 113.859H303.295Z" fill="#F3F3F3"/>
<path d="M118.039 89.602C116.954 85.9783 117.493 82.1566 119.557 78.83C121.621 75.5035 125.073 72.8926 129.288 71.4709C133.503 70.0492 138.201 69.9109 142.53 71.0811C146.858 72.2513 150.531 74.6524 152.882 77.849C155.184 76.9949 157.712 76.6273 160.233 76.7798C162.754 76.9322 165.188 77.5999 167.312 78.7217C169.436 79.8434 171.182 81.3834 172.39 83.2005C173.598 85.0177 174.23 87.0539 174.228 89.1227C174.228 89.2813 174.228 89.4533 174.228 89.602H118.039Z" fill="#F3F3F3"/>
<path d="M373.522 310.374C353.21 310.374 336.76 317.472 336.76 326.243H410.304C410.292 317.472 393.83 310.374 373.522 310.374Z" fill="#74D5DE"/>
<path d="M203.217 333.804C198.147 333.804 194.035 336.7 194.035 340.274H212.404C212.404 336.7 208.291 333.804 203.217 333.804Z" fill="#FB836D"/>
<path d="M336.748 299.259C331.674 299.259 327.565 303.557 327.565 308.867H345.918C345.918 303.56 341.818 299.259 336.748 299.259Z" fill="#FB836D"/>
<path d="M48.9425 323.106C40.863 323.106 34.3347 325.258 34.3347 327.91H63.5382C63.5382 325.258 57.0099 323.106 48.9425 323.106Z" fill="#FB836D"/>
<path d="M416.432 323.106C408.353 323.106 401.825 325.258 401.825 327.91H431.036C431.036 325.258 424.5 323.106 416.432 323.106Z" fill="#FB836D"/>
<path d="M356.446 247.721H356.442C346.663 247.721 338.735 254.209 338.735 262.212V275.436C338.735 283.439 346.663 289.926 356.442 289.926H356.446C366.225 289.926 374.152 283.439 374.152 275.436V262.212C374.152 254.209 366.225 247.721 356.446 247.721Z" fill="#74D5DE"/>
<path d="M356.446 300.942V260.889" stroke="#FED385" stroke-width="2.39" stroke-linecap="round" stroke-linejoin="round"/>
<path d="M356.446 277.922C366.117 277.922 366.117 273.151 366.117 265.934" stroke="#FED385" stroke-width="2.39" stroke-linecap="round" stroke-linejoin="round"/>
<path d="M356.446 270.625C349.736 270.625 349.736 267.319 349.736 262.307" stroke="#FED385" stroke-width="2.39" stroke-linecap="round" stroke-linejoin="round"/>
<path d="M134.117 314.206H166.855" stroke="#FED385" stroke-width="3.69" stroke-linecap="round" stroke-linejoin="round"/>
<path d="M270.132 296.436H291.842" stroke="#FED385" stroke-width="3.69" stroke-linecap="round" stroke-linejoin="round"/>
<path d="M253.759 300.942H275.473" stroke="#FED385" stroke-width="3.69" stroke-linecap="round" stroke-linejoin="round"/>
<path d="M47.3306 304.615H69.0444" stroke="#FED385" stroke-width="3.69" stroke-linecap="round" stroke-linejoin="round"/>
<path d="M302.511 331.262H333.031" stroke="#FED385" stroke-width="3.69" stroke-linecap="round" stroke-linejoin="round"/>
</svg>
