<svg width="507" height="463" viewBox="0 0 507 463" fill="none" xmlns="http://www.w3.org/2000/svg">
<path d="M187.191 66.3598C187.191 55.7211 190.678 45.3213 197.211 36.4756C203.744 27.6299 213.029 20.7356 223.893 16.6647C234.756 12.5937 246.71 11.5289 258.243 13.6048C269.775 15.6808 280.369 20.8043 288.683 28.3275C296.997 35.8507 302.658 45.4355 304.952 55.87C307.245 66.3045 306.066 77.1199 301.566 86.9484C297.065 96.7769 289.444 105.177 279.666 111.087C269.889 116.996 258.394 120.15 246.635 120.149C238.828 120.149 231.098 118.758 223.885 116.054C216.673 113.351 210.119 109.389 204.599 104.394C199.079 99.3992 194.701 93.4695 191.714 86.9435C188.727 80.4176 187.19 73.4232 187.191 66.3598V66.3598Z" fill="#DFDFDF"/>
<path d="M53.7079 451.243L36.4039 460.471V462.744H70.1999V451.243H53.7079Z" fill="black"/>
<path d="M142.426 451.876H159.016V462.206H142.426V451.876Z" fill="black"/>
<path d="M11.001 287.83L72.692 304.404L62.192 336.438L0.500977 319.864L11.001 287.83Z" fill="#DFDFDF"/>
<path d="M64.0259 238.918L52.9099 452.25L71.6419 452.389L110.03 312.784L109.113 243.326L64.0259 238.918Z" fill="#61CAD6"/>
<path d="M161.2 238.5C160.899 244.567 160.129 452.687 160.129 452.687L141.859 452.807L85.047 243.738C85.047 243.738 161.515 232.439 161.2 238.5Z" fill="#6BD5E1"/>
<path d="M47.212 179.929C43.418 185.718 34.332 229.393 34.416 239.608C31.49 248.76 33.863 276.278 33.94 279.926C34.017 283.574 33.24 297.223 34.101 300.579C31.805 305.874 43.418 316.881 46.974 317.166C50.53 317.451 54.716 311.808 54.716 309.085C54.716 302.156 49.725 296.298 49.816 293.435C50.292 279.141 57.166 242.686 58.034 240.235C58.902 237.784 61.828 233.015 64.278 231.084C66.728 229.152 67.911 186.63 67.911 186.63C67.911 186.63 49.235 176.845 47.212 179.929Z" fill="#E49D75"/>
<path d="M96.94 106.266C96.94 108.065 98.158 124.569 95.834 128.274C93.51 131.979 118.78 130.725 118.78 127.92C118.78 125.114 117.947 112.086 119.991 107.368C122.035 102.65 96.94 104.461 96.94 106.266Z" fill="#E49D75"/>
<path d="M182.935 155.153L186.631 157.592C186.631 157.592 218.383 101.972 218.768 99.9584C219.153 97.9444 216.668 92.9918 217.046 90.6294C217.424 88.2671 230.199 76.8101 234.203 76.6328C238.207 76.4554 238.522 78.2478 237.542 80.0148C236.562 81.7818 228.897 88.8244 228.897 88.8244C228.897 88.8244 234.203 87.5008 236.058 88.8244C237.913 90.1481 244.948 98.6348 242.309 102.346C239.67 106.057 234.609 107.913 233.615 110.123C232.621 112.334 202.451 189.094 198.748 190.607C192.497 193.141 172.281 184.274 169.25 179.917C166.219 175.559 182.935 155.153 182.935 155.153Z" fill="#E49D75"/>
<path d="M84.816 131.188C105.571 137.971 92.061 187.884 85.474 191.355C80.259 194.091 42.1439 183.223 40.8419 178.01C38.9099 170.29 66.7769 125.298 84.816 131.188Z" fill="#FFC48E"/>
<path d="M110.919 122.182C164.21 122.023 169.39 231.983 160.444 239.507C144.344 253.066 66.889 246.993 63.5149 239.798C57.9779 228.005 60.5819 122.327 110.919 122.182Z" fill="#FFD98E"/>
<path d="M118.689 141.638C127.88 123.493 181.738 139.826 184.986 146.071C187.569 151.005 172.386 184.464 166.569 185.205C157.924 186.281 110.695 157.408 118.689 141.638Z" fill="#FFE3AD"/>
<path d="M87.7 82.7948C87.7 67.0375 98.4729 54.2632 111.766 54.2632C125.059 54.2632 135.832 67.0375 135.832 82.7948C135.832 98.5522 125.059 111.333 111.766 111.333C98.4729 111.333 87.7 98.5522 87.7 82.7948Z" fill="#E49D75"/>
<path d="M79.776 79.1217C78.894 67.215 86.503 56.1507 89.212 49.1967C91.55 42.5087 96.212 37.5433 102.232 37.2837C108.252 37.024 109.932 38.4047 113.943 38.2717C117.954 38.1387 124.919 34.0347 129.455 34.0347C133.991 34.0347 136.7 36.967 139.5 38.8037C142.3 40.6403 148.082 44.0983 148.061 47.1447C147.942 65.4607 129.441 63.7253 124.058 68.9884C120.404 71.7687 120.18 78.2604 118.353 79.318C116.526 80.3757 112.571 79.7487 112.501 84.9484C112.459 88.0074 113.376 90.509 115.791 90.7054C118.206 90.9017 119.06 91.6997 119.011 93.2894C118.5 108.629 106.53 111.51 101.651 111.067C94.812 110.484 92.873 102.929 91.186 100.345C84.718 93.815 80.322 86.6077 79.776 79.1217Z" fill="#FF8364"/>
<path d="M243.751 68.6969L252.662 34.3892L261.58 0.0751953L278.8 8.23253L295.999 16.3899L269.889 42.5465L243.751 68.6969Z" fill="#31B3C2"/>
<path d="M335.29 15.541H506.216V110.642H335.29V15.541Z" fill="#DFDFDF"/>
<path d="M345.601 23.1792H360.77V102.979H345.601V23.1792Z" fill="#31B3C2"/>
<path d="M368.12 34.75H383.289V103.004H368.12V34.75Z" fill="#FF8364"/>
<path d="M390.646 52.3062H405.815V102.973H390.646V52.3062Z" fill="#353852"/>
<path d="M413.2 76.126H428.362V103.005H413.2V76.126Z" fill="#949494"/>
<path d="M435.691 53.0537H450.86V103.005H435.691V53.0537Z" fill="#FBDC8E"/>
<path d="M458.217 35.6431H473.4V103.004H458.217V35.6431Z" fill="#E49D75"/>
<path d="M480.743 23.1792H495.905V102.979H480.743V23.1792Z" fill="#6BD5E1"/>
<path d="M254.51 202.444L286.64 173.368" stroke="black" stroke-linecap="round" stroke-linejoin="round"/>
<path d="M304.756 188.827L339.245 157.629" stroke="black" stroke-linecap="round" stroke-linejoin="round"/>
<path d="M357.2 172.671L364.697 165.888" stroke="black" stroke-linecap="round" stroke-linejoin="round"/>
<path d="M393.999 192.001L438.799 151.467" stroke="black" stroke-linecap="round" stroke-linejoin="round"/>
<path d="M286.745 172.887L303.958 188.467" stroke="black" stroke-linecap="round" stroke-linejoin="round"/>
<path d="M339.294 157.934L356.36 173.374" stroke="black" stroke-linecap="round" stroke-linejoin="round"/>
<path d="M365.138 165.534L394.027 191.671" stroke="black" stroke-linecap="round" stroke-linejoin="round"/>
<path d="M439.94 150.466L451.084 160.543" stroke="black" stroke-linecap="round" stroke-linejoin="round"/>
<path d="M284.911 173.399C284.911 173.055 285.024 172.718 285.235 172.432C285.447 172.145 285.748 171.922 286.099 171.79C286.451 171.658 286.838 171.624 287.212 171.691C287.585 171.758 287.928 171.924 288.197 172.168C288.466 172.411 288.65 172.722 288.724 173.06C288.798 173.397 288.76 173.748 288.614 174.066C288.469 174.384 288.222 174.656 287.905 174.848C287.589 175.039 287.217 175.141 286.836 175.141C286.325 175.141 285.836 174.958 285.475 174.631C285.114 174.304 284.911 173.861 284.911 173.399Z" fill="black"/>
<path d="M302.523 188.226C302.523 187.881 302.636 187.544 302.847 187.258C303.059 186.972 303.36 186.748 303.711 186.616C304.063 186.485 304.45 186.45 304.824 186.517C305.197 186.585 305.54 186.75 305.809 186.994C306.078 187.238 306.262 187.548 306.336 187.886C306.41 188.224 306.372 188.574 306.226 188.892C306.081 189.21 305.834 189.482 305.517 189.674C305.201 189.865 304.829 189.967 304.448 189.967C303.937 189.967 303.448 189.784 303.087 189.457C302.726 189.131 302.523 188.688 302.523 188.226Z" fill="black"/>
<path d="M337.173 158.465C337.173 158.121 337.286 157.784 337.498 157.497C337.71 157.21 338.011 156.987 338.363 156.856C338.715 156.724 339.103 156.69 339.476 156.758C339.85 156.825 340.193 156.992 340.462 157.236C340.731 157.48 340.913 157.791 340.987 158.129C341.06 158.468 341.021 158.818 340.875 159.136C340.728 159.454 340.48 159.726 340.162 159.917C339.845 160.107 339.472 160.208 339.091 160.207C338.582 160.205 338.094 160.021 337.734 159.695C337.375 159.368 337.173 158.926 337.173 158.465Z" fill="black"/>
<path d="M354.827 172.975C354.827 172.631 354.94 172.294 355.151 172.007C355.363 171.721 355.664 171.498 356.015 171.366C356.367 171.234 356.754 171.2 357.127 171.267C357.501 171.334 357.844 171.5 358.113 171.744C358.382 171.987 358.566 172.297 358.64 172.635C358.714 172.973 358.676 173.323 358.53 173.642C358.385 173.96 358.138 174.232 357.821 174.423C357.505 174.615 357.133 174.717 356.752 174.717C356.241 174.717 355.752 174.533 355.391 174.207C355.03 173.88 354.827 173.437 354.827 172.975Z" fill="black"/>
<path d="M363.171 165.654C363.171 165.309 363.284 164.973 363.495 164.686C363.707 164.4 364.008 164.177 364.359 164.045C364.711 163.913 365.098 163.878 365.472 163.946C365.845 164.013 366.188 164.179 366.457 164.422C366.726 164.666 366.91 164.976 366.984 165.314C367.058 165.652 367.02 166.002 366.874 166.32C366.729 166.638 366.482 166.911 366.165 167.102C365.849 167.293 365.477 167.395 365.096 167.395C364.585 167.395 364.096 167.212 363.735 166.885C363.374 166.559 363.171 166.116 363.171 165.654Z" fill="black"/>
<path d="M392.235 191.253C392.235 190.909 392.348 190.572 392.559 190.286C392.771 189.999 393.072 189.776 393.423 189.644C393.775 189.512 394.162 189.478 394.536 189.545C394.909 189.612 395.252 189.778 395.521 190.022C395.79 190.265 395.974 190.576 396.048 190.914C396.122 191.251 396.084 191.602 395.938 191.92C395.793 192.238 395.546 192.51 395.229 192.702C394.913 192.893 394.541 192.995 394.16 192.995C393.649 192.995 393.16 192.812 392.799 192.485C392.438 192.158 392.235 191.715 392.235 191.253V191.253Z" fill="black"/>
<path d="M437.987 150.967C437.987 150.622 438.1 150.286 438.311 149.999C438.523 149.713 438.824 149.489 439.175 149.358C439.527 149.226 439.914 149.191 440.288 149.259C440.661 149.326 441.004 149.492 441.273 149.735C441.542 149.979 441.726 150.289 441.8 150.627C441.874 150.965 441.836 151.315 441.69 151.633C441.545 151.951 441.298 152.224 440.981 152.415C440.665 152.606 440.293 152.708 439.912 152.708C439.401 152.708 438.912 152.525 438.551 152.198C438.19 151.872 437.987 151.429 437.987 150.967Z" fill="black"/>
</svg>
