<svg width="587" height="481" viewBox="0 0 587 481" fill="none" xmlns="http://www.w3.org/2000/svg">
<g clip-path="url(#clip0)">
<path d="M299.587 481C436.223 481 546.987 373.324 546.987 240.5C546.987 107.676 436.223 0 299.587 0C162.952 0 52.1876 107.676 52.1876 240.5C52.1876 373.324 162.952 481 299.587 481Z" fill="#FAEFE9"/>
<path d="M436.89 135.651H285.185V364.017H436.89V135.651Z" fill="white"/>
<path d="M254.78 275.035H410.325" stroke="black" stroke-miterlimit="10"/>
<path d="M254.78 289.969H410.325" stroke="black" stroke-miterlimit="10"/>
<path d="M254.78 304.903H410.325" stroke="black" stroke-miterlimit="10"/>
<path d="M254.78 319.837H410.325" stroke="black" stroke-miterlimit="10"/>
<path d="M361.037 240.811C382.955 240.811 400.724 223.538 400.724 202.231C400.724 180.925 382.955 163.652 361.037 163.652C339.119 163.652 321.351 180.925 321.351 202.231C321.351 223.538 339.119 240.811 361.037 240.811Z" fill="#F2F2F2"/>
<path opacity="0.7" d="M473.055 216.854H410.325V273.479H473.055V216.854Z" fill="#31B3C2"/>
<path d="M430.802 248.002L441.229 252.217V255.481L427.604 249.168V246.737L441.229 240.44V243.705L430.802 248.002ZM429.353 300.812H426.704L436.832 274.477H439.464L429.353 300.812ZM439.647 327.903L428.637 323.588V320.424L442.862 326.72V329.152L428.637 335.465V332.267L439.647 327.903Z" fill="white"/>
<path d="M361.677 23.3345H23.0629V239.878H361.677V23.3345Z" stroke="black" stroke-miterlimit="10"/>
<path d="M23.0629 34.8462H361.677" stroke="black" stroke-miterlimit="10"/>
<path d="M149.483 54.1357H47.7068V153.074H149.483V54.1357Z" stroke="black" stroke-miterlimit="10"/>
<path d="M169.006 62.8477H324.551" stroke="black" stroke-miterlimit="10"/>
<path d="M169.006 77.7812H324.551" stroke="black" stroke-miterlimit="10"/>
<path d="M169.006 92.7153H324.551" stroke="black" stroke-miterlimit="10"/>
<path d="M169.006 107.649H324.551" stroke="black" stroke-miterlimit="10"/>
<path opacity="0.44" d="M98.595 80.2705L70.8785 126.939H126.311L98.595 80.2705Z" fill="#50B89D"/>
<path d="M30.424 32.0461C32.0149 32.0461 33.3045 30.7924 33.3045 29.2459C33.3045 27.6995 32.0149 26.4458 30.424 26.4458C28.8332 26.4458 27.5436 27.6995 27.5436 29.2459C27.5436 30.7924 28.8332 32.0461 30.424 32.0461Z" fill="#AB8DE5"/>
<path d="M40.3457 32.0461C41.9365 32.0461 43.2261 30.7924 43.2261 29.2459C43.2261 27.6995 41.9365 26.4458 40.3457 26.4458C38.7548 26.4458 37.4652 27.6995 37.4652 29.2459C37.4652 30.7924 38.7548 32.0461 40.3457 32.0461Z" fill="#73E5E2"/>
<path d="M50.2672 32.0461C51.858 32.0461 53.1476 30.7924 53.1476 29.2459C53.1476 27.6995 51.858 26.4458 50.2672 26.4458C48.6763 26.4458 47.3867 27.6995 47.3867 29.2459C47.3867 30.7924 48.6763 32.0461 50.2672 32.0461Z" fill="#50B89D"/>
<path d="M172.207 199.898L181.808 191.653H172.015L172.207 199.898Z" fill="#AB8DE5"/>
<path d="M223.62 160.852H175.843C168.532 160.852 162.605 166.613 162.605 173.72V179.719C162.605 186.826 168.532 192.587 175.843 192.587H223.62C230.931 192.587 236.857 186.826 236.857 179.719V173.72C236.857 166.613 230.931 160.852 223.62 160.852Z" fill="#FF8364"/>
<path d="M189.81 179.519C191.4 179.519 192.69 178.266 192.69 176.719C192.69 175.173 191.4 173.919 189.81 173.919C188.219 173.919 186.929 175.173 186.929 176.719C186.929 178.266 188.219 179.519 189.81 179.519Z" fill="white"/>
<path d="M199.731 179.519C201.322 179.519 202.612 178.266 202.612 176.719C202.612 175.173 201.322 173.919 199.731 173.919C198.14 173.919 196.851 175.173 196.851 176.719C196.851 178.266 198.14 179.519 199.731 179.519Z" fill="white"/>
<path d="M209.653 179.519C211.244 179.519 212.533 178.266 212.533 176.719C212.533 175.173 211.244 173.919 209.653 173.919C208.062 173.919 206.772 175.173 206.772 176.719C206.772 178.266 208.062 179.519 209.653 179.519Z" fill="white"/>
<path d="M476.256 106.561L466.654 98.3159H476.448L476.256 106.561Z" fill="#73E5E2"/>
<path d="M424.843 99.249L472.62 99.249C479.931 99.249 485.857 93.4878 485.857 86.3809V80.3824C485.857 73.2755 479.931 67.5142 472.62 67.5142H424.843C417.532 67.5142 411.605 73.2755 411.605 80.3824V86.3809C411.605 93.4878 417.532 99.249 424.843 99.249Z" fill="#73E5E2"/>
<path d="M458.653 86.1818C460.244 86.1818 461.533 84.9281 461.533 83.3817C461.533 81.8352 460.244 80.5815 458.653 80.5815C457.062 80.5815 455.772 81.8352 455.772 83.3817C455.772 84.9281 457.062 86.1818 458.653 86.1818Z" fill="white"/>
<path d="M448.731 86.1818C450.322 86.1818 451.612 84.9281 451.612 83.3817C451.612 81.8352 450.322 80.5815 448.731 80.5815C447.14 80.5815 445.851 81.8352 445.851 83.3817C445.851 84.9281 447.14 86.1818 448.731 86.1818Z" fill="white"/>
<path d="M438.81 86.1818C440.4 86.1818 441.69 84.9281 441.69 83.3817C441.69 81.8352 440.4 80.5815 438.81 80.5815C437.219 80.5815 435.929 81.8352 435.929 83.3817C435.929 84.9281 437.219 86.1818 438.81 86.1818Z" fill="white"/>
<path d="M471.135 29.2458C472.726 29.2458 474.015 27.9921 474.015 26.4456C474.015 24.8992 472.726 23.6455 471.135 23.6455C469.544 23.6455 468.255 24.8992 468.255 26.4456C468.255 27.9921 469.544 29.2458 471.135 29.2458Z" fill="#F98B67"/>
<path d="M477.216 40.7575C478.807 40.7575 480.096 39.5038 480.096 37.9574C480.096 36.4109 478.807 35.1572 477.216 35.1572C475.625 35.1572 474.335 36.4109 474.335 37.9574C474.335 39.5038 475.625 40.7575 477.216 40.7575Z" fill="#F98B67"/>
<path d="M410.965 155.874C413.44 155.874 415.446 153.924 415.446 151.518C415.446 149.113 413.44 147.163 410.965 147.163C408.491 147.163 406.484 149.113 406.484 151.518C406.484 153.924 408.491 155.874 410.965 155.874Z" fill="#F98B67"/>
<path d="M437.209 170.808C439.684 170.808 441.69 168.858 441.69 166.452C441.69 164.046 439.684 162.096 437.209 162.096C434.735 162.096 432.729 164.046 432.729 166.452C432.729 168.858 434.735 170.808 437.209 170.808Z" fill="#F98B67"/>
<path d="M33.9446 175.786C36.4192 175.786 38.4253 173.836 38.4253 171.43C38.4253 169.024 36.4192 167.074 33.9446 167.074C31.47 167.074 29.4639 169.024 29.4639 171.43C29.4639 173.836 31.47 175.786 33.9446 175.786Z" fill="#F98B67"/>
<path d="M421.335 370.395V369.773L419.799 367.906L416.246 363.712L412.469 359.269C412.469 359.269 408.834 356.824 407.899 356.401C404.494 354.87 401.14 353.7 397.133 353.7C394.668 353.7 385.457 354.061 385.438 355.567C385.438 357.801 398.336 366.257 407.797 370.364C411.951 370.395 421.335 370.395 421.335 370.395Z" fill="#1F161E"/>
<path d="M419.383 370.395C406.254 360.576 379.453 307.019 386.328 287.169C400.96 294.418 417.014 319.414 424.587 340.521C424.994 341.893 425.321 343.287 425.566 344.696L428.638 358.386L429.381 370.414L419.383 370.395Z" fill="#FBDC8E"/>
<path d="M428.344 370.395C423.915 366.898 422.5 356.544 422.461 352.68C422.391 345.468 423.53 340.154 429.874 332.22C436.217 324.286 434.527 311.126 442.951 302.246C451.375 293.367 456.957 290.89 466.955 290.89C476.953 290.89 480.128 306.646 480.077 310.609C479.962 326.601 469.599 328.866 463.274 336.495C458.685 342.033 458.326 346.563 456.937 349.151C449.487 363.102 443.431 368.348 438.951 370.395" fill="#73E5E2"/>
<path d="M430.789 369.238C430.917 341.964 460.484 301.001 466.802 294.86" stroke="white" stroke-width="0.4" stroke-linecap="round" stroke-linejoin="round"/>
<path d="M432.383 356.842C429.112 353.377 426.136 343.551 426.584 341" stroke="white" stroke-width="0.4" stroke-linecap="round" stroke-linejoin="round"/>
<path d="M424.004 368.043C419.37 360.059 397.382 321.131 389.183 292.458" stroke="white" stroke-width="0.4" stroke-linecap="round" stroke-linejoin="round"/>
<path d="M438.976 370.395H452.751L441.229 412.086H410.421L399.085 370.395H438.976Z" fill="#B37361"/>
<path d="M389.944 356.413C396.659 356.861 405.108 357.16 411.068 361.111" stroke="white" stroke-width="0.4" stroke-linecap="round" stroke-linejoin="round"/>
<path d="M496.381 199.743C494.761 207.253 482.996 300.417 486.843 322.668C490.69 344.92 553.414 391.545 556.16 392.36C559.36 390.077 564.072 382.591 564.072 382.591C564.072 382.591 518.08 330.764 517.203 328.685C516.326 326.607 527.278 206.587 527.278 206.587L496.381 199.743Z" fill="#1F161E"/>
<path d="M571.286 216.699L524.36 402.758H508.555L524.571 208.66L571.286 216.699Z" fill="#FF8364"/>
<path d="M537.955 110.169C544.433 110.169 578.224 111.233 584.331 122.795C590.437 134.356 584.683 187.795 580.887 189.867C578.839 190.981 578.282 189.898 577.687 192.163C577.091 194.428 571.285 216.699 571.285 216.699C567.598 216.798 513.843 208.927 496.393 199.724C496.496 197.166 497.341 190.514 497.341 190.004C495.024 190.925 492.22 191.118 491.452 190.004C484.641 179.98 494.793 127.717 502.078 117.201C505.176 112.69 527.56 110.201 537.955 110.169Z" fill="#FBDC8E"/>
<path d="M560.205 191.311C561.793 191.311 575.459 200.645 574.288 205.231C575.248 201.547 578.269 190.166 578.269 190.166C576.97 190.409 561.37 191.33 560.205 191.311Z" fill="#1F161E"/>
<path d="M546.322 116.268C546.322 118.296 529.865 118.296 529.865 116.268V95.7334H546.322V116.268Z" fill="#F8CDBA"/>
<path d="M536.88 100.593C538.16 100.593 546.322 104.103 546.322 106.057V95.7334C544.286 95.7334 536.88 100.593 536.88 100.593Z" fill="#1F161E"/>
<path d="M534.627 102.093C543.468 102.093 550.636 95.1252 550.636 86.5303C550.636 77.9353 543.468 70.9678 534.627 70.9678C525.785 70.9678 518.618 77.9353 518.618 86.5303C518.618 95.1252 525.785 102.093 534.627 102.093Z" fill="#F8CDBA"/>
<path d="M529.211 63.7808C520.993 63.7808 515.872 68.7961 515.872 75.224C515.872 80.5691 517.203 83.5932 518.771 84.3586C519.764 79.169 521.921 76.7671 523.707 75.7342C525.096 76.7671 527.47 79.2686 530.645 80.0402C533.82 80.8118 542.084 80.6624 548.76 85.3791C550.943 83.4501 553.119 80.9424 553.119 77.9867C553.119 75.0311 551.775 71.3224 543.87 69.1819C538.647 67.7694 537.917 63.7808 529.211 63.7808Z" fill="#1F161E"/>
<path d="M519.668 91.1534C521.216 91.1534 522.471 90.5182 522.471 89.7347C522.471 88.9511 521.216 88.3159 519.668 88.3159C518.119 88.3159 516.864 88.9511 516.864 89.7347C516.864 90.5182 518.119 91.1534 519.668 91.1534Z" fill="#FA9E9F"/>
<path d="M537.302 91.1534C538.851 91.1534 540.106 90.5182 540.106 89.7347C540.106 88.9511 538.851 88.3159 537.302 88.3159C535.754 88.3159 534.499 88.9511 534.499 89.7347C534.499 90.5182 535.754 91.1534 537.302 91.1534Z" fill="#FA9E9F"/>
<path d="M526.517 86.7915C525.992 87.5195 523.316 90.5748 526.139 91.8068" stroke="#1F161E" stroke-miterlimit="10" stroke-linecap="round"/>
<path d="M531.791 95.3786C532.636 95.3786 533.936 94.3581 534.62 93.4434" stroke="#1F161E" stroke-miterlimit="10" stroke-linecap="round"/>
<path d="M549.426 91.9188C551.469 91.9188 553.126 90.3085 553.126 88.3222C553.126 86.3358 551.469 84.7256 549.426 84.7256C547.383 84.7256 545.726 86.3358 545.726 88.3222C545.726 90.3085 547.383 91.9188 549.426 91.9188Z" fill="#F8CDBA"/>
<path d="M560.577 140.791C560.289 144.225 559.162 161.2 559.584 163.434C554.214 165.251 505.041 187.92 496.534 190.409" stroke="#1F161E" stroke-miterlimit="10" stroke-linecap="round"/>
<path d="M503.467 135.433C502.334 139.279 498.519 156.733 501.201 164.841" stroke="#1F161E" stroke-miterlimit="10" stroke-linecap="round"/>
<path d="M516.019 182.469C518.579 184.217 543.121 194.777 577.053 190.794" stroke="#1F161E" stroke-miterlimit="10" stroke-linecap="round"/>
<path d="M513.67 164.841C515.315 165.096 509.951 160.933 506.91 162.482C503.87 164.032 499.773 171.045 500.612 172.669C500.725 172.963 500.904 173.23 501.137 173.448C501.37 173.666 501.65 173.831 501.957 173.93C502.264 174.03 502.591 174.06 502.912 174.021C503.233 173.981 503.54 173.872 503.812 173.702C504.638 173.185 510.802 164.393 513.67 164.841Z" fill="#F8CDBA"/>
<path d="M563.547 383.356C564.424 383.979 572.201 389.094 572.265 392.317C572.329 395.54 565.019 406.224 563.547 406.529C562.074 406.834 561.025 405.627 561.025 403.468C561.025 401.308 563.803 397.525 563.431 395.845C563.06 394.165 559.469 391.091 557.626 391.035" fill="#1F161E"/>
<path d="M522.862 402.758C522.862 404.239 523.745 413.536 521.978 414.401C520.212 415.266 500.714 415.776 499.831 414.917C498.947 414.058 498.41 412.248 499.191 411.731C499.972 411.215 507.512 409.746 508.536 409.062C509.56 408.377 510.975 404.706 510.457 402.758" fill="#1F161E"/>
<path d="M140.432 333.738H16.649V394.775H140.432V333.738Z" fill="#B37361"/>
<path d="M201.415 305.133C201.952 308.245 211.08 379.374 212.559 380.55C214.038 381.726 229.739 384.333 231.084 382.38C231.352 379.268 231.724 329.662 232.556 325.226" fill="#1F161E"/>
<path d="M24.8104 290.293C18.4798 287.262 31.6787 347.335 66.4171 347.335C101.156 347.335 159.629 295.893 169.096 295.893C189.995 295.893 239.469 335.779 243.348 335.779C246.318 332.892 252.258 327.839 252.258 325.823C252.258 323.807 204.891 248.042 169.448 248.042C155.705 248.061 39.1039 297.156 24.8104 290.293Z" fill="#31B3C2"/>
<path d="M44.3591 291.313C51.3043 289.783 59.9456 285.819 67.5949 281.768C46.7851 288.383 29.7328 292.657 24.8104 290.293C21.4562 288.687 23.5814 304.766 31.4675 320.254C30.04 317.261 28.0045 294.947 44.3591 291.313Z" fill="#1F161E"/>
<path d="M59.6704 185.929C65.1433 186.072 93.6343 185.257 101.444 192.487C107.236 197.851 125.249 243.979 128.027 260.176C115.929 266.156 28.6702 306.77 1.6643 288.911C1.069 275.035 3.84065 219.873 21.5011 190.944C27.9597 186.763 54.4088 185.798 59.6704 185.929Z" fill="#73E5E2"/>
<path d="M70.7697 172.731H54.1271V190.117C54.1271 194.472 70.7697 194.435 70.7697 190.117V172.731Z" fill="#F8CDBA"/>
<path d="M54.1271 183.228C54.1271 181.299 59.6256 176.452 63.0245 176.626C63.1077 174.479 55.2601 171.393 55.2601 171.393L54.1271 174.361V183.228Z" fill="#1F161E"/>
<path d="M88.1998 172.731C88.5735 171.048 88.7623 169.331 88.7631 167.61C88.7631 154.779 78.451 144.375 65.7194 144.375C52.9877 144.375 42.6757 154.779 42.6757 167.61C42.6764 169.331 42.8652 171.048 43.239 172.731H88.1998Z" fill="#1F161E"/>
<path d="M82.1253 157.069C79.3024 156.652 76.4859 154.493 74.5208 153.08C63.319 161.057 56.1435 161.163 55.369 161.163C54.5944 161.163 51.4387 165.569 49.9857 166.066L49.8577 165.992C50.2897 168.31 51.2129 170.515 52.5687 172.468C53.9246 174.42 55.6834 176.078 57.7334 177.334C59.7834 178.59 62.0799 179.418 64.4768 179.766C66.8737 180.113 69.3187 179.972 71.6565 179.351C73.9943 178.73 76.1737 177.644 78.0563 176.16C79.9389 174.677 81.4835 172.829 82.5921 170.734C83.7006 168.639 84.3487 166.343 84.4954 163.992C84.642 161.64 84.2839 159.285 83.4439 157.075C83.0057 157.126 82.5628 157.124 82.1253 157.069Z" fill="#F8CDBA"/>
<path d="M53.2373 147.268C56.9917 147.268 60.0352 144.31 60.0352 140.66C60.0352 137.01 56.9917 134.052 53.2373 134.052C49.483 134.052 46.4395 137.01 46.4395 140.66C46.4395 144.31 49.483 147.268 53.2373 147.268Z" fill="#1F161E"/>
<path d="M56.265 160.809C55.5304 160.842 54.8374 161.15 54.3298 161.667C53.8222 162.185 53.5391 162.872 53.5391 163.587C53.5391 164.302 53.8222 164.989 54.3298 165.507C54.8374 166.024 55.5304 166.331 56.265 166.365" stroke="#1F161E" stroke-miterlimit="10" stroke-linecap="round"/>
<path d="M78.0542 161.163C78.8927 162.252 81.0499 164.162 78.0542 166.185" stroke="#1F161E" stroke-miterlimit="10" stroke-linecap="round"/>
<path d="M68.9711 167.641C68.9711 168.456 69.3295 170.404 71.1282 170.908" stroke="#1F161E" stroke-miterlimit="10" stroke-linecap="round"/>
<path d="M63.3958 167.834C64.8523 167.834 66.033 167.237 66.033 166.502C66.033 165.767 64.8523 165.17 63.3958 165.17C61.9393 165.17 60.7585 165.767 60.7585 166.502C60.7585 167.237 61.9393 167.834 63.3958 167.834Z" fill="#FA9E9F"/>
<path d="M83.0022 167.834C84.4587 167.834 85.6394 167.237 85.6394 166.502C85.6394 165.767 84.4587 165.17 83.0022 165.17C81.5457 165.17 80.365 165.767 80.365 166.502C80.365 167.237 81.5457 167.834 83.0022 167.834Z" fill="#FA9E9F"/>
<path d="M100.842 234.01L118.63 229.561C120.339 232.386 128.661 260.145 128.661 260.145L101.2 271.395C101.559 266.137 102.64 242.056 100.842 234.01Z" fill="#F8CDBA"/>
<path d="M38.4702 229.661C38.4702 231.751 36.6587 239.71 35.5897 243.45" stroke="#1F161E" stroke-miterlimit="10" stroke-linecap="round"/>
<path d="M100.842 234.01C100.413 230.719 97.9038 212.169 93.6343 202.406" stroke="#1F161E" stroke-miterlimit="10" stroke-linecap="round"/>
<path d="M100.842 234.01L118.63 229.561C120.339 232.386 128.661 260.145 128.661 260.145L101.2 271.395C101.559 266.137 102.64 242.056 100.842 234.01Z" fill="#F8CDBA"/>
<path d="M243.879 334.311C244.276 334.933 249.576 341.255 251.452 341.323C253.327 341.392 264.715 333.894 264.215 332.282C263.716 330.671 256.573 331.722 255.344 331.156C254.115 330.59 251.368 327.926 250.92 326.744" fill="#1F161E"/>
<path d="M215.875 381.21C215.74 381.901 215.017 390.046 216.316 391.365C217.616 392.684 231.167 394.974 231.954 393.475C232.741 391.975 226.833 387.912 226.379 386.68C225.924 385.448 225.828 381.702 226.379 380.532" fill="#1F161E"/>
<path d="M194.63 261.887H134.351L148.702 224.919H208.981L194.63 261.887Z" fill="#969696"/>
<path d="M144.401 260.493H84.1223V261.887H144.401V260.493Z" fill="#969696"/>
<path d="M35.5897 243.449C34.4311 247.656 28.8046 265.701 31.0962 268.812C33.3878 271.924 90.7794 264.874 106.135 260.225C110.046 258.981 112.946 255.72 114.681 255.297C116.908 254.931 119.196 255.377 121.106 256.551C123.015 257.725 124.411 259.543 125.025 261.657C118.893 264.544 30.3537 308.487 1.66428 288.93C-3.7574 285.153 5.75453 239.106 6.1898 236.785C11.0354 237.351 35.5897 243.449 35.5897 243.449Z" fill="#F8CDBA"/>
<path d="M101.661 261.346C103.389 260.947 104.9 260.555 106.142 260.182C110.053 258.938 112.953 255.677 114.687 255.254C116.915 254.887 119.203 255.334 121.112 256.508C123.022 257.681 124.417 259.5 125.031 261.613" stroke="#1F161E" stroke-miterlimit="10" stroke-linecap="round"/>
</g>
<defs>
<clipPath id="clip0">
<rect width="587" height="481" fill="white"/>
</clipPath>
</defs>
</svg>
